<svg width="17" height="15" viewBox="0 0 17 15" fill="none" xmlns="http://www.w3.org/2000/svg">
<path d="M12.3126 5.2145C12.1058 3.70474 11.3163 2.32768 10.104 1.36194C8.89165 0.396212 7.347 -0.086083 5.78254 0.0126417C4.21808 0.111366 2.75063 0.783739 1.67709 1.89372C0.603557 3.0037 0.00409676 4.46841 0 5.99149C0 7.41183 0.507681 8.71731 1.35691 9.74578C1.98127 10.5033 2.31818 11.3403 2.31818 12.2269V15H9.27272L9.27349 12.7479H10.8182C11.2281 12.7479 11.6211 12.5897 11.911 12.3081C12.2008 12.0265 12.3636 11.6447 12.3636 11.2465V9.04763L13.8782 8.41703C14.1424 8.30743 14.1656 8.04618 14.0513 7.87126L12.3126 5.2145ZM1.54545 5.99149C1.54427 4.84682 1.99171 3.74466 2.79686 2.90895C3.60202 2.07325 4.70447 1.5667 5.88021 1.49224C7.05596 1.41777 8.21677 1.78099 9.12679 2.50807C10.0368 3.23515 10.6277 4.27156 10.7795 5.40668L10.8236 5.7385L12.0159 7.55897L10.8182 8.05744V11.2465H7.72881L7.72727 13.4986H3.86363V12.2269C3.86363 10.9965 3.40695 9.83062 2.56159 8.80665C1.90169 8.00865 1.54307 7.01511 1.54545 5.99149ZM15.5735 12.0737L14.2869 11.2404C15.0501 10.1314 15.4565 8.82694 15.4545 7.49291C15.4569 6.15869 15.0508 4.85393 14.2877 3.74461L15.5735 2.91133C16.5064 4.2672 17.0029 5.86204 17 7.49291C17 9.18801 16.4745 10.763 15.5735 12.0737Z" fill="#F3AE29"/>
</svg>
